# xmcd
#
# Track frame offsets:
# 150
# 29065
# 52133
# 91095
# 104233
# 132318
# 176473
#
# Disc length: 2761 seconds
#
#
# Revision: 0
# Processed by: cddbd v1.4PL0 Copyright (c) Steve Scherf et al.
# Submitted via: FreeRIP 2.53 
#
DISCID=630ac707
DTITLE=GALLAGHER Rory - Live! in Europe
DYEAR=1972
DGENRE=Blues/Rock
TTITLE0=Messin' With The Kid
TTITLE1=Laundromat
TTITLE2=I Could've Had Religion
TTITLE3=Pistol Slapper Blues
TTITLE4=Going To My Hometown
TTITLE5=In Your Town
TTITLE6=Bullfrog Blues
EXTD=YEAR: 1972  ID3G:   0
EXTT0=
EXTT1=
EXTT2=
EXTT3=
EXTT4=
EXTT5=
EXTT6=
PLAYORDER=
